<svg xmlns="http://www.w3.org/2000/svg" viewBox="0 0 512 512" width="100%" height="100%">
  <!-- Dark Background -->
  <rect width="512" height="512" rx="128" fill="#111111"/>
  <!-- Custom Monogram DP (P sprouting from D's bottom curve) in Brand Red -->
  <g fill="#cc0000">
    <!-- Letter D -->
    <path d="M140 130 v180 c0 35 25 60 60 60 h70 c60 0 100 -40 100 -100 v-80 c0 -60 -40 -100 -100 -100 H140 Z m55 50 h65 c28 0 45 17 45 45 v70 c0 28 -17 45 -45 45 h-65 v-160 Z"/>
    <!-- Letter P branching from bottom of D -->
    <path d="M260 370 v60 c0 15 10 25 25 25 h35 c40 0 70 -30 70 -70 v-65 c0 -40 -30 -70 -70 -70 h-60 v45 h60 c15 0 25 10 25 25 v65 c0 15 -10 25 -25 25 h-35 v-45 H260 Z"/>
  </g>
</svg>